# xmcd
#
# Track frame offsets: 
#        150
#        30345
#        59562
#        88077
#        110120
#        137877
#        160812
#        188042
#        206505
#        255975
#        282457
#        312955
#
# Disc length: 4466 seconds
#
# Revision: 6
# Processed by: cddbd v1.5.2PL0 Copyright (c) Steve Scherf et al.
# Submitted via: ExactAudioCopy v1.3
#
DISCID=ab11700c
DTITLE=Chris Sheppard - Have a Nice Trip
DYEAR=1993
DGENRE=Euro-House
TTITLE0=Urban Cookie Collective, Diane Charlemagne - The Key, The Secr
TTITLE0=et (Kamoflage Club Mix)
TTITLE1=Direckt - Two Fatt Guitars (Babetastic Original Mix)
TTITLE2=Mellow Mellow - I Can't Stop (Mellow Club Mix)
TTITLE3=Dance 2 Trance, Linda Rocco - Power of American Natives (Vocal
TTITLE3=Mix - Edit)
TTITLE4=Acen - Window in the Sky (Kingdom of Light)
TTITLE5=Rufig Cru - Terminator II
TTITLE6=Felix - Stars (CJ Bolland Mix)
TTITLE7=DHS - This Is Acid
TTITLE8=Air Liquide - Liquid Air (Original Version)
TTITLE9=Aphrodisiac - Song of the Siren (Atlantic Mix)
TTITLE10=Capricorn - 20 Hz (Original Extended)
TTITLE11=Mars Plastic - Find the Way (Trans-X-Val Mix - Edit)
EXTD=
EXTT0=
EXTT1=
EXTT2=
EXTT3=
EXTT4=
EXTT5=
EXTT6=
EXTT7=
EXTT8=
EXTT9=
EXTT10=
EXTT11=
PLAYORDER=
